G04 #@! TF.GenerationSoftware,KiCad,Pcbnew,6.0.0-rc1-unknown-2fdf13a~66~ubuntu16.04.1*
G04 #@! TF.CreationDate,2018-11-18T17:19:58+00:00*
G04 #@! TF.ProjectId,demo,64656d6f-2e6b-4696-9361-645f70636258,rev?*
G04 #@! TF.SameCoordinates,Original*
G04 #@! TF.FileFunction,Legend,Top*
G04 #@! TF.FilePolarity,Positive*
%FSLAX46Y46*%
G04 Gerber Fmt 4.6, Leading zero omitted, Abs format (unit mm)*
G04 Created by KiCad (PCBNEW 6.0.0-rc1-unknown-2fdf13a~66~ubuntu16.04.1) date Sun 18 Nov 2018 17:19:58 GMT*
%MOMM*%
%LPD*%
G01*
G04 APERTURE LIST*
%ADD10C,0.150000*%
G04 APERTURE END LIST*
D10*
G04 #@! TO.C,BT1*
X227740000Y-1930000D02*
X227740000Y-4470000D01*
X222660000Y-1930000D02*
X227740000Y-1930000D01*
X222660000Y-4470000D02*
X222660000Y-1930000D01*
X227740000Y-4470000D02*
X222660000Y-4470000D01*
G04 #@! TO.C,C1*
X218675000Y-7275000D02*
X219325000Y-7275000D01*
X218675000Y-7525000D02*
X218675000Y-7275000D01*
X219325000Y-7525000D02*
X218675000Y-7525000D01*
X219325000Y-7275000D02*
X219325000Y-7525000D01*
G04 #@! TO.C,C2*
X229925000Y-10925000D02*
X229675000Y-10925000D01*
X229675000Y-10925000D02*
X229675000Y-10275000D01*
X229675000Y-10275000D02*
X229925000Y-10275000D01*
X229925000Y-10275000D02*
X229925000Y-10925000D01*
G04 #@! TO.C,D1*
X221925000Y-12600000D02*
X221675000Y-12925000D01*
X221925000Y-12600000D02*
X221675000Y-12275000D01*
X221675000Y-12925000D02*
X221675000Y-12275000D01*
G04 #@! TO.C,IC1*
X223330001Y-6650001D02*
X225580001Y-6650001D01*
X225580001Y-6650001D02*
X225580001Y-10460001D01*
X225580001Y-10460001D02*
X222730001Y-10460001D01*
X222730001Y-10460001D02*
X222730001Y-7250001D01*
X222730001Y-7250001D02*
X223330001Y-6650001D01*
G04 #@! TO.C,R1*
X229675000Y-7325000D02*
X229675000Y-6675000D01*
X229925000Y-7325000D02*
X229675000Y-7325000D01*
X229925000Y-6675000D02*
X229925000Y-7325000D01*
X229675000Y-6675000D02*
X229925000Y-6675000D01*
G04 #@! TO.C,R2*
X229675000Y-8475000D02*
X229925000Y-8475000D01*
X229925000Y-8475000D02*
X229925000Y-9125000D01*
X229925000Y-9125000D02*
X229675000Y-9125000D01*
X229675000Y-9125000D02*
X229675000Y-8475000D01*
G04 #@! TO.C,R3*
X219325000Y-10675000D02*
X219325000Y-10925000D01*
X219325000Y-10925000D02*
X218675000Y-10925000D01*
X218675000Y-10925000D02*
X218675000Y-10675000D01*
X218675000Y-10675000D02*
X219325000Y-10675000D01*
G04 #@! TD*
M02*
