G04 #@! TF.GenerationSoftware,KiCad,Pcbnew,6.0.0-rc1-unknown-2fdf13a~66~ubuntu16.04.1*
G04 #@! TF.CreationDate,2018-11-18T17:19:58+00:00*
G04 #@! TF.ProjectId,demo,64656d6f-2e6b-4696-9361-645f70636258,rev?*
G04 #@! TF.SameCoordinates,Original*
G04 #@! TF.FileFunction,Copper,L2,Bot*
G04 #@! TF.FilePolarity,Positive*
%FSLAX46Y46*%
G04 Gerber Fmt 4.6, Leading zero omitted, Abs format (unit mm)*
G04 Created by KiCad (PCBNEW 6.0.0-rc1-unknown-2fdf13a~66~ubuntu16.04.1) date Sun 18 Nov 2018 17:19:58 GMT*
%MOMM*%
%LPD*%
G01*
G04 APERTURE LIST*
G04 #@! TA.AperFunction,ComponentPad*
%ADD10C,1.900000*%
G04 #@! TD*
G04 #@! TA.AperFunction,ComponentPad*
%ADD11R,1.900000X1.900000*%
G04 #@! TD*
G04 #@! TA.AperFunction,ViaPad*
%ADD12C,0.800000*%
G04 #@! TD*
G04 #@! TA.AperFunction,Conductor*
%ADD13C,0.254000*%
G04 #@! TD*
G04 APERTURE END LIST*
D10*
G04 #@! TO.P,BT1,2*
G04 #@! TO.N,GND*
X223930000Y-3200000D03*
D11*
G04 #@! TO.P,BT1,1*
G04 #@! TO.N,5v*
X226470000Y-3200000D03*
G04 #@! TD*
D12*
G04 #@! TO.N,GND*
X221400000Y-5400000D03*
X219600000Y-5200000D03*
X224000000Y-12600000D03*
X230800000Y-11800000D03*
G04 #@! TD*
D13*
G04 #@! TO.N,GND*
G36*
X222699234Y-2148842D02*
X222813648Y-2263256D01*
X222551981Y-2355792D01*
X222333812Y-2947398D01*
X222358648Y-3577461D01*
X222551981Y-4044208D01*
X222813650Y-4136745D01*
X223750395Y-3200000D01*
X223736253Y-3185858D01*
X223915858Y-3006253D01*
X223930000Y-3020395D01*
X223944143Y-3006253D01*
X224123748Y-3185858D01*
X224109605Y-3200000D01*
X224123748Y-3214143D01*
X223944143Y-3393748D01*
X223930000Y-3379605D01*
X222993255Y-4316350D01*
X223085792Y-4578019D01*
X223677398Y-4796188D01*
X224307461Y-4771352D01*
X224774208Y-4578019D01*
X224866744Y-4316352D01*
X224915309Y-4364917D01*
X224921843Y-4397765D01*
X225062191Y-4607809D01*
X225272235Y-4748157D01*
X225520000Y-4797440D01*
X227420000Y-4797440D01*
X227667765Y-4748157D01*
X227877809Y-4607809D01*
X228018157Y-4397765D01*
X228067440Y-4150000D01*
X228067440Y-2465464D01*
X232365001Y-6763027D01*
X232365000Y-13365000D01*
X218135000Y-13365000D01*
X218135000Y-6263024D01*
X222263025Y-2135000D01*
X222713076Y-2135000D01*
X222699234Y-2148842D01*
X222699234Y-2148842D01*
G37*
X222699234Y-2148842D02*
X222813648Y-2263256D01*
X222551981Y-2355792D01*
X222333812Y-2947398D01*
X222358648Y-3577461D01*
X222551981Y-4044208D01*
X222813650Y-4136745D01*
X223750395Y-3200000D01*
X223736253Y-3185858D01*
X223915858Y-3006253D01*
X223930000Y-3020395D01*
X223944143Y-3006253D01*
X224123748Y-3185858D01*
X224109605Y-3200000D01*
X224123748Y-3214143D01*
X223944143Y-3393748D01*
X223930000Y-3379605D01*
X222993255Y-4316350D01*
X223085792Y-4578019D01*
X223677398Y-4796188D01*
X224307461Y-4771352D01*
X224774208Y-4578019D01*
X224866744Y-4316352D01*
X224915309Y-4364917D01*
X224921843Y-4397765D01*
X225062191Y-4607809D01*
X225272235Y-4748157D01*
X225520000Y-4797440D01*
X227420000Y-4797440D01*
X227667765Y-4748157D01*
X227877809Y-4607809D01*
X228018157Y-4397765D01*
X228067440Y-4150000D01*
X228067440Y-2465464D01*
X232365001Y-6763027D01*
X232365000Y-13365000D01*
X218135000Y-13365000D01*
X218135000Y-6263024D01*
X222263025Y-2135000D01*
X222713076Y-2135000D01*
X222699234Y-2148842D01*
G04 #@! TD*
M02*
